<?xml version="1.0" standalone="no"?>
<!DOCTYPE svg PUBLIC "-//W3C//DTD SVG 20010904//EN"
 "http://www.w3.org/TR/2001/REC-SVG-20010904/DTD/svg10.dtd">
<svg version="1.0" xmlns="http://www.w3.org/2000/svg"
 width="900.000000pt" height="900.000000pt" viewBox="0 0 900.000000 900.000000"
 preserveAspectRatio="xMidYMid meet">

<g transform="translate(0.000000,900.000000) scale(0.100000,-0.100000)"
fill="#000000" stroke="none">
<path d="M0 4500 l0 -4500 4500 0 4500 0 0 4500 0 4500 -4500 0 -4500 0 0
-4500z m4722 3470 c208 -14 365 -35 538 -72 764 -161 1429 -578 1942 -1218 48
-60 183 -266 240 -365 208 -364 354 -788 413 -1197 64 -453 48 -894 -49 -1294
-21 -86 -79 -285 -101 -349 -136 -386 -315 -714 -546 -1001 -210 -260 -420
-463 -684 -661 -357 -268 -892 -501 -1358 -592 -238 -46 -340 -55 -622 -56
-571 0 -955 88 -1470 334 -357 172 -637 366 -904 625 -172 169 -278 292 -403
469 -275 392 -458 791 -562 1227 -41 172 -60 301 -82 550 -37 432 28 913 182
1349 264 744 766 1363 1434 1769 124 75 296 164 425 219 479 207 1051 300
1607 263z"/>
<path d="M4400 7703 c-209 -5 -484 -37 -638 -73 -480 -114 -867 -297 -1252
-594 -122 -94 -398 -365 -490 -481 -370 -468 -616 -1063 -680 -1644 -14 -121
-13 -446 0 -581 28 -272 86 -536 165 -749 66 -180 171 -417 221 -503 l46 -78
17 22 c10 13 50 71 90 130 87 129 182 221 273 265 37 18 203 84 370 147 250
95 572 222 587 232 2 2 -17 29 -41 61 -94 122 -154 223 -215 355 -116 255
-161 473 -179 876 -5 111 -10 152 -19 152 -7 0 -60 22 -118 49 -239 111 -355
300 -312 507 43 204 199 318 406 298 l66 -6 98 188 c54 104 129 250 168 324
75 146 239 457 293 556 64 118 139 169 286 194 43 7 359 10 1003 8 l940 -3 60
-29 c105 -52 135 -93 318 -446 30 -58 100 -190 157 -295 57 -104 128 -242 159
-305 31 -63 67 -132 79 -152 l23 -37 92 1 c123 2 180 -17 256 -88 40 -36 67
-73 87 -116 26 -57 29 -73 29 -168 0 -103 -1 -106 -40 -180 -57 -106 -123
-168 -244 -228 -54 -27 -119 -55 -144 -62 l-44 -13 -7 -186 c-9 -276 -36 -438
-112 -672 -57 -178 -157 -372 -261 -508 -18 -24 -33 -49 -33 -56 0 -15 245
-118 670 -281 405 -156 451 -190 602 -444 l53 -88 62 111 c145 259 286 659
337 957 62 365 55 807 -19 1176 -63 314 -231 734 -406 1017 -289 466 -769 898
-1253 1128 -442 209 -999 325 -1506 312z"/>
<path d="M3572 7033 c-44 -21 -52 -36 -226 -383 -82 -162 -152 -299 -156 -305
-4 -5 -29 -57 -54 -115 -26 -58 -51 -112 -55 -120 -7 -13 153 -15 1410 -15
796 0 1419 4 1419 9 0 4 -51 106 -114 225 -62 119 -153 293 -201 386 -133 258
-146 280 -184 306 l-36 24 -885 2 c-807 3 -888 1 -918 -14z"/>
<path d="M4383 5813 l-1842 -3 -6 -55 c-9 -72 -2 -99 38 -129 31 -24 262 -162
359 -215 l48 -26 0 -95 c0 -158 20 -418 40 -540 60 -354 214 -649 459 -883
108 -102 199 -166 336 -235 428 -214 1021 -201 1412 30 379 225 666 691 713
1158 9 86 29 456 30 538 0 19 5 32 13 32 16 0 347 191 405 233 l43 32 -6 74
c-3 41 -8 78 -11 83 -3 4 -47 7 -97 6 -51 -2 -921 -4 -1934 -5z m357 -652
c146 -37 270 -93 400 -181 53 -35 54 -36 89 -10 41 28 114 43 160 30 41 -11
90 -57 116 -110 39 -76 28 -215 -32 -403 -55 -174 -115 -270 -252 -399 -167
-157 -376 -250 -630 -278 -176 -20 -416 22 -586 103 -206 97 -402 286 -484
469 -35 78 -84 239 -101 335 -10 56 -10 81 -1 120 15 59 53 117 96 143 58 36
168 24 225 -25 13 -11 25 -6 75 27 132 87 300 160 446 193 96 22 367 14 479
-14z"/>
<path d="M3755 4711 c-52 -32 -68 -58 -73 -116 -4 -46 0 -64 24 -110 74 -147
315 -314 541 -376 98 -26 284 -36 377 -20 209 37 410 136 542 267 87 87 119
144 119 216 0 64 -19 97 -75 136 -45 31 -69 28 -131 -15 -176 -121 -251 -165
-328 -193 -180 -66 -284 -74 -435 -36 -135 35 -201 66 -362 173 -78 51 -148
93 -155 93 -8 0 -27 -8 -44 -19z"/>
<path d="M3300 3560 c-19 -10 -78 -35 -130 -56 -52 -20 -165 -66 -250 -102
-85 -35 -184 -75 -220 -88 -36 -12 -152 -56 -258 -96 -182 -70 -194 -76 -219
-113 -14 -22 -54 -78 -89 -125 -89 -122 -114 -173 -114 -235 0 -40 7 -62 31
-101 78 -122 302 -365 464 -502 50 -42 92 -80 93 -84 9 -20 18 -5 15 25 -27
228 -75 484 -122 652 -11 38 -19 71 -18 71 1 1 76 25 167 53 91 27 190 59 220
69 111 39 337 135 416 177 l80 43 25 -19 c64 -51 285 -174 407 -225 23 -10 32
-21 32 -38 0 -24 52 -282 115 -566 20 -91 45 -208 56 -260 23 -112 84 -471 93
-550 l7 -55 272 -3 c150 -1 316 0 370 4 93 6 97 7 97 29 0 60 110 638 175 920
76 331 105 462 105 478 0 9 5 17 10 17 22 0 220 100 353 178 l139 81 80 -40
c177 -89 412 -181 634 -249 l141 -42 -34 -127 c-48 -183 -91 -392 -103 -506
-5 -55 -12 -113 -15 -128 -5 -28 -4 -28 53 21 214 186 426 414 530 570 l55 82
-12 54 c-13 59 -54 127 -162 273 -74 100 -84 107 -205 147 -45 15 -180 67
-300 115 -356 144 -413 167 -529 212 -60 23 -116 46 -122 52 -9 6 -51 -16
-139 -73 -354 -230 -695 -330 -1079 -317 -354 12 -650 113 -974 333 -51 35
-96 64 -100 63 -3 -1 -22 -9 -41 -19z m1294 -781 c71 7 130 11 131 9 2 -2 -41
-158 -96 -348 -54 -189 -111 -397 -126 -460 l-28 -116 -22 75 c-13 42 -44 150
-69 241 -45 166 -163 576 -170 595 -3 7 36 7 123 1 88 -6 169 -5 257 3z"/>
</g>
</svg>
